# xmcd CD database file
#
# Track frame offsets:
#	150
#	19628
#	44942
#	67018
#	89605
#	107564
#	123400
#	146357
#	169410
#
# Disc length: 2544 seconds
#
# Revision: 2
# Processed by: cddbd v1.4b41PL1 Copyright (c) Steve Scherf et al.
# Submitted via: Feurio! 1.60 - http://www.feurio.com
#
DISCID=7909ee09,8209ee09
DTITLE=April Wine - Animal Grace
DYEAR=1900
DGENRE=
TTITLE0=This Could be the Right One
TTITLE1=Sons of the Pioneers
TTITLE2=Without Your Love
TTITLE3=Rock Tonite
TTITLE4=Hard Rock Kid
TTITLE5=Money Talks
TTITLE6=Gimme That Thing Called Love
TTITLE7=Too Hot to Handle
TTITLE8=Last Time I'll Ever Sing the B
EXTD=
EXTT0=
EXTT1=
EXTT2=
EXTT3=
EXTT4=
EXTT5=
EXTT6=
EXTT7=
EXTT8=
PLAYORDER=
